<svg width="26" height="25" viewBox="0 0 26 25" fill="none" xmlns="http://www.w3.org/2000/svg">
<path d="M4.717 13.7778C4.62666 13.7089 4.53821 13.6376 4.45175 13.564C4.5135 13.663 4.604 13.7397 4.717 13.7778ZM5.3845 3.89025H20.5615V12.7692C21.0935 12.4742 21.3793 12.2732 21.575 12.1445V3.382C21.5749 3.24749 21.5213 3.11853 21.4262 3.02347C21.331 2.9284 21.202 2.875 21.0675 2.875H4.877C4.59625 2.875 4.36875 3.1025 4.36875 3.382V12.167C4.5615 12.2885 4.83825 12.4922 5.3845 12.797V3.89025Z" fill="#8FCAFF"/>
<path d="M22.4478 11.9945C22.317 11.8903 22.136 11.8908 21.8487 11.9945C21.765 12.025 21.6803 12.0758 21.575 12.1445C21.3793 12.2733 21.0938 12.4743 20.5615 12.7693C20.3973 12.8593 20.2182 12.9563 20.0012 13.065C19.9332 13.099 19.8678 13.1268 19.8005 13.1593C18.5773 13.7353 17.477 13.9203 17.477 13.9203H13.8333C13.7643 13.9203 13.5433 13.9628 13.4373 14.1225C13.3328 14.282 13.3503 14.545 13.3503 14.545V14.989C13.4818 15.0823 13.6208 15.1658 13.774 15.2185C14.8725 15.593 15.6157 15.2665 15.94 14.8115C16.3192 14.278 16.5122 13.9793 16.9287 14.1353C17.3452 14.2913 16.9287 15.3053 16.4087 15.826C15.8875 16.347 15.2627 16.7633 14.3787 16.7633C14.0072 16.7633 13.6473 16.7075 13.3503 16.6443V20.427C13.3503 21.4945 14.4847 22.065 15.2647 22.065C16.0447 22.065 17.6065 21.623 18.3615 19.7493C19.1157 17.876 18.3102 15.404 18.3102 15.404C18.3102 15.404 19.5323 14.8563 20.808 14.0505C22.0825 13.2443 22.4218 12.489 22.4478 12.383C22.4727 12.2763 22.5767 12.099 22.4478 11.9945Z" fill="#8FCAFF"/>
<path d="M16.4087 15.8257C16.9288 15.305 17.3452 14.291 16.9287 14.135C16.5122 13.979 16.3192 14.2777 15.94 14.8112C15.6157 15.2662 14.8725 15.5927 13.774 15.2182C13.6208 15.1655 13.4818 15.082 13.3503 14.9887C12.8077 14.603 12.4385 13.979 12.1667 13.979H8.523C8.523 13.979 7.51225 13.808 6.352 13.2875C6.2355 13.235 6.11825 13.183 5.99925 13.1232C5.79179 13.0193 5.58682 12.9104 5.3845 12.7967C4.83825 12.492 4.5615 12.2885 4.36875 12.1667C4.2885 12.116 4.2205 12.078 4.151 12.053C3.865 11.949 3.68275 11.949 3.5525 12.053C3.423 12.1575 3.5265 12.335 3.5525 12.4412C3.5725 12.5225 3.78075 12.9872 4.4515 13.5637C4.68523 13.7628 4.93277 13.945 5.19225 14.109C6.46675 14.9157 7.69 15.462 7.69 15.462C7.69 15.462 6.88325 17.9335 7.63875 19.8072C8.39325 21.6807 9.9545 22.1247 10.735 22.1247C11.5157 22.1247 12.6503 21.5505 12.6503 20.4837V16.451C12.6503 16.451 12.9383 16.556 13.35 16.6437C13.647 16.707 14.007 16.7627 14.3785 16.7627C15.2627 16.763 15.8875 16.3467 16.4087 15.8257ZM15.7542 8.59525C15.1538 8.59538 14.5779 8.83397 14.1532 9.25856C13.7286 9.68315 13.4899 10.259 13.4897 10.8595C13.4897 12.1092 14.5035 13.1235 15.7542 13.1235C17.0037 13.1235 18.0173 12.1092 18.0173 10.8595C18.0173 9.6095 17.0037 8.59525 15.7542 8.59525Z" fill="#8FCAFF"/>
<path d="M10.386 8.59525C9.136 8.59525 8.12275 9.6095 8.12275 10.8595C8.12275 12.1092 9.13575 13.1235 10.386 13.1235C11.6367 13.1235 12.6505 12.1092 12.6505 10.8595C12.6505 9.6095 11.6367 8.59525 10.386 8.59525Z" fill="#8FCAFF"/>
</svg>
