<svg width="16" height="16" viewBox="0 0 16 16" fill="none" xmlns="http://www.w3.org/2000/svg">
<path d="M8 0.5C6.5 0.5 5.5 1.5 5.5 2.5C5.5 4 6 5 6.5 5.5V6H9.5V5.5C10 5 10.5 4 10.5 2.5C10.5 1.5 9.5 0.5 8 0.5ZM6.0125 2.54156L8 3.20312L9.9875 2.54156L8.7625 5.60313L8.2375 5.39687L9.0125 3.45937L8 3.79688L6.9875 3.45937L7.7625 5.39687L7.2375 5.60313L6.0125 2.54156ZM3.40937 5.0125C2.67812 5.10625 2.01562 5.96562 2.01562 7.07188C2.01562 7.68438 2.22812 8.225 2.5375 8.6L2.90937 9.04375L2.3375 9.15C1.93438 9.22812 1.64062 9.44063 1.3875 9.7875C1.13438 10.1344 0.940625 10.6156 0.80625 11.175C0.5625 12.1813 0.50625 13.4125 0.5 14.5H1.8375L1.9075 15.4375H5.3L5.3625 14.5H6.6375C6.6375 13.4 6.625 12.1531 6.40312 11.1344C6.27812 10.575 6.09375 10.0938 5.8375 9.75C5.58125 9.40625 5.27187 9.19375 4.81875 9.125L4.24062 9.03438L4.60625 8.575C4.90312 8.20312 5.10313 7.66875 5.10313 7.07188C5.10313 5.89062 4.36562 5.01562 3.55938 5.01562L3.40937 5.0125ZM12.2719 5.0125C11.5406 5.10625 10.8781 5.96562 10.8781 7.07188C10.8781 7.68438 11.0906 8.225 11.4 8.6L11.7719 9.04375L11.2 9.15C10.7969 9.22812 10.5031 9.44063 10.25 9.7875C9.99687 10.1344 9.80312 10.6156 9.66875 11.175C9.425 12.1813 9.36875 13.4125 9.3625 14.5H10.7L10.7688 15.4375H14.1625L14.225 14.5H15.5C15.5 13.4 15.4875 12.1531 15.2656 11.1344C15.1406 10.575 14.9563 10.0938 14.7 9.75C14.4437 9.40625 14.1344 9.19375 13.6812 9.125L13.1031 9.03438L13.4688 8.575C13.7656 8.20312 13.9656 7.66875 13.9656 7.07188C13.9656 5.89062 13.2281 5.01562 12.4219 5.01562L12.2719 5.0125ZM6.5 6.53125V7.09375H9.5V6.53125H6.5ZM7 7.59375V8.15625H9V7.59375H7Z" fill="#8FCAFF"/>
</svg>
